<svg id="Capa_1" enable-background="new 0 0 512 512" height="512" viewBox="0 0 512 512" width="512" xmlns="http://www.w3.org/2000/svg"><g><g fill="#f0e5e0"><path d="m245.183 463.581h-113.835c-4.267 0-7.726-3.459-7.726-7.726s3.459-7.726 7.726-7.726h113.835c4.267 0 2.575 3.459 2.575 7.726s1.692 7.726-2.575 7.726z"/><path d="m384.773 463.581h-115.724c-4.267 0-3.606-3.459-3.606-7.726s-.661-7.726 3.606-7.726h115.724c4.267 0 7.726 3.459 7.726 7.726s-3.459 7.726-7.726 7.726z"/><path d="m194.533 310.085h-60.266c-4.267 0-7.726-3.459-7.726-7.726s3.459-7.726 7.726-7.726h60.266c4.267 0 2.575 3.459 2.575 7.726 0 4.266 1.692 7.726-2.575 7.726z"/><path d="m378.076 310.085h-160.88c-4.267 0-3.606-3.459-3.606-7.726s-.661-7.726 3.606-7.726h160.88c4.267 0 7.726 3.459 7.726 7.726.001 4.266-3.458 7.726-7.726 7.726z"/><path d="m388.207 263.726h-120.36c-4.267 0-3.606-3.459-3.606-7.726s-.661-7.726 3.606-7.726h120.36c4.267 0 7.726 3.459 7.726 7.726s-3.459 7.726-7.726 7.726z"/><path d="m245.183 263.726h-117.269c-4.267 0-7.726-3.459-7.726-7.726s3.459-7.726 7.726-7.726h117.269c4.267 0 2.575 3.459 2.575 7.726.001 4.267 1.692 7.726-2.575 7.726z"/><path d="m378.076 217.368h-58.72c-4.267 0-3.606-3.459-3.606-7.726s-.661-7.726 3.606-7.726h58.72c4.267 0 7.726 3.459 7.726 7.726.001 4.267-3.458 7.726-7.726 7.726z"/><path d="m295.662 217.368h-160.88c-4.267 0-7.726-3.459-7.726-7.726s3.459-7.726 7.726-7.726h160.88c4.267 0 3.606 3.459 3.606 7.726s.661 7.726-3.606 7.726z"/><path d="m245.183 63.871h-110.916c-4.267 0-7.726-3.459-7.726-7.726s3.459-7.726 7.726-7.726h110.916c4.267 0 2.575 3.459 2.575 7.726s1.692 7.726-2.575 7.726z"/><path d="m378.076 63.871h-109.027c-4.267 0-3.606-3.459-3.606-7.726s-.661-7.726 3.606-7.726h109.028c4.267 0 7.726 3.459 7.726 7.726s-3.459 7.726-7.727 7.726z"/></g><path d="m103.018 251.364c0-73.964 59.96-133.924 133.924-133.924h38.117c56.895 0 103.018-46.123 103.018-103.018v-4.121c0-5.69 4.612-10.302 10.302-10.302h10.302c5.69 0 10.302 4.612 10.302 10.302v4.121c0 73.964-59.96 133.924-133.924 133.924h-38.117c-56.895 0-103.018 46.123-103.018 103.018v9.272c0 56.895 46.123 103.018 103.018 103.018h38.117c73.964 0 133.924 59.96 133.924 133.924v4.121c0 5.69-4.612 10.302-10.302 10.302h-10.302c-5.69 0-10.302-4.612-10.302-10.302v-4.121c0-56.895-46.123-103.018-103.018-103.018h-38.117c-73.964 0-133.924-59.96-133.924-133.924z" fill="#f9e385"/><path d="m408.982 10.302v4.121c0 73.967-59.957 133.924-133.924 133.924h-30.905c73.081 0 132.481-58.525 133.893-131.266.021-.886.031-1.772.031-2.658v-4.121c-.001-5.687 4.615-10.302 10.301-10.302h10.302c5.687 0 10.302 4.615 10.302 10.302z" fill="#f9c269"/><path d="m408.982 251.364c0-73.964-59.96-133.924-133.924-133.924h-38.117c-56.895 0-103.018-46.123-103.018-103.018v-4.121c0-5.69-4.612-10.302-10.302-10.302h-10.301c-5.69 0-10.302 4.612-10.302 10.302v4.121c0 73.964 59.96 133.924 133.924 133.924h38.117c56.895 0 103.018 46.123 103.018 103.018v9.272c0 56.895-46.123 103.018-103.018 103.018h-38.117c-73.964 0-133.924 59.96-133.924 133.924v4.121c0 5.69 4.612 10.302 10.302 10.302h10.302c5.69 0 10.302-4.612 10.302-10.302v-4.121c0-56.895 46.123-103.018 103.018-103.018h38.117c73.964 0 133.924-59.96 133.924-133.924v-9.272z" fill="#b2a6f4"/><path d="m337.559 132.893c-18.657 9.869-39.93 15.453-62.501 15.453h-38.117c-22.571 0-43.844-5.584-62.501-15.453 18.657-9.869 39.93-15.453 62.501-15.453h38.117c22.572.001 43.845 5.584 62.501 15.453z" fill="#b2a6f4"/><path d="m408.982 251.364v9.272c0 51.392-28.944 96.021-71.42 118.475-11.728 3.722-25.799-.004-17.9-7.85 34.588-23.654 57.513-63.107 58.384-107.967.021-.886.031-1.772.031-2.658v-9.272c0-.886-.01-1.772-.031-2.658-1.411-72.741-60.812-131.266-133.893-131.266h30.905c73.967.001 133.924 59.957 133.924 133.924z" fill="#8686d1"/><path d="m337.559 379.107s-6.219 12.1-17.559 14.727c-9.749 2.258-34.508.726-44.942.726h-38.117c-22.571 0-43.844-5.584-62.501-15.453 0 0 6.306-8.91 14.893-11.44 12.022-3.542 34.442-4.013 47.608-4.013h38.117c11.286 0 18.309 3.821 28.781 6.451 10.472 2.629 24.392 4.067 33.72 9.002z" fill="#f9e385"/><path d="m408.982 497.577v4.121c0 5.687-4.615 10.302-10.302 10.302h-10.302c-5.687 0-10.302-4.615-10.302-10.302v-4.121c0-.886-.01-1.772-.031-2.658-1.411-72.741-60.812-131.266-133.893-131.266h30.905c73.968.001 133.925 59.957 133.925 133.924z" fill="#f9c269"/><path d="m256 271.453c-8.534 0-15.453-6.918-15.453-15.453 0-8.534 6.918-15.453 15.453-15.453 8.534 0 15.453 6.918 15.453 15.453 0 8.534-6.919 15.453-15.453 15.453z" fill="#dd636e"/><path d="m307.509 225.095c-8.534 0-15.453-6.918-15.453-15.453 0-8.534 6.918-15.453 15.453-15.453 8.534 0 15.453 6.918 15.453 15.453 0 8.534-6.919 15.453-15.453 15.453z" fill="#b1e4f9"/><path d="m205.349 286.905c8.534 0 15.453 6.918 15.453 15.453 0 8.534-6.918 15.453-15.453 15.453-8.534 0-15.453-6.918-15.453-15.453.001-8.534 6.919-15.453 15.453-15.453z" fill="#b1e4f9"/><path d="m256 471.308c-8.534 0-15.453-6.918-15.453-15.453 0-8.534 6.918-15.453 15.453-15.453 8.534 0 15.453 6.918 15.453 15.453 0 8.534-6.919 15.453-15.453 15.453z" fill="#dd636e"/><path d="m256 40.692c-8.534 0-15.453 6.918-15.453 15.453 0 8.534 6.918 15.453 15.453 15.453 8.534 0 15.453-6.918 15.453-15.453 0-8.534-6.919-15.453-15.453-15.453z" fill="#dd636e"/></g></svg>