<svg id="Capa_1" enable-background="new 0 0 512.017 512.017" height="512" viewBox="0 0 512.017 512.017" width="512" xmlns="http://www.w3.org/2000/svg"><g id="XMLID_1509_"><g id="XMLID_1725_"><path id="XMLID_842_" d="m182.124 123.008 49.344-49.344c9.934-9.934 17.884-21.322 23.652-33.685 5.73-12.282-1.394-26.705-14.652-29.516-9.668-2.05-19.316 2.98-23.515 11.926-3.715 7.915-8.818 15.208-15.184 21.574l-49.323 49.323z" fill="#91def5"/><path id="XMLID_1044_" d="m64.453 10.458c9.659-2.053 19.302 2.968 23.503 11.905 3.713 7.9 8.81 15.179 15.166 21.535l79.023 79.023-.021.021 49.344 49.344c46.216 46.216 46.216 121.147 0 167.363l-49.344 49.344-29.679-29.721 49.323-49.323c29.813-29.813 29.813-78.149 0-107.962l-79.023-79.023.021-.021-49.345-49.345c-9.919-9.919-17.862-21.291-23.628-33.636-5.731-12.269 1.381-26.682 14.626-29.498z" fill="#ffcb7c"/><path id="XMLID_1515_" d="m64.421 501.539c-13.258-2.811-20.382-17.234-14.652-29.516 5.768-12.363 13.718-23.751 23.652-33.685l49.344-49.344 29.679 29.721-49.323 49.323c-6.366 6.366-11.47 13.659-15.184 21.574-4.199 8.947-13.848 13.977-23.516 11.927z" fill="#ffcb7c"/><path id="XMLID_1511_" d="m240.436 501.544c-9.659 2.053-19.302-2.968-23.503-11.905-3.713-7.9-8.81-15.179-15.166-21.535l-79.023-79.023.021-.021-49.344-49.344c-46.216-46.216-46.216-121.147 0-167.363l49.344-49.344 29.679 29.721-49.323 49.323c-29.813 29.813-29.813 78.149 0 107.962l79.023 79.023-.021.021 49.344 49.344c9.919 9.919 17.862 21.291 23.628 33.636 5.731 12.269-1.381 26.682-14.626 29.498z" fill="#91def5"/></g><g id="XMLID_1364_"><path id="XMLID_1287_" d="m393.259 64.001h80v96h-80z" fill="#ffcb7c"/><path id="XMLID_1947_" d="m469.259 160.001h-72v252c0 19.882 16.118 36 36 36 19.882 0 36-16.118 36-36z" fill="#cff1fb"/><path id="XMLID_1845_" d="m469.259 254.157h-72v157.844c0 19.882 16.118 36 36 36 19.882 0 36-16.118 36-36z" fill="#f6838d"/><g id="XMLID_33_"><path id="XMLID_386_" d="m238.539 431.332-42.306-42.305 42.306-42.305c11.836-11.837 21.104-25.599 27.547-40.902 2.143-5.09-.246-10.953-5.336-13.097-5.089-2.141-10.954.246-13.097 5.337-5.435 12.907-13.259 24.521-23.257 34.52l-42.285 42.284-15.558-15.558 42.284-42.284c16.308-16.308 25.289-37.989 25.289-61.052s-8.981-44.745-25.289-61.052l-128.345-128.391c-9.032-9.032-16.312-19.393-21.639-30.797-1.444-3.092-1.403-6.609.111-9.65 1.499-3.008 4.245-5.135 7.567-5.841 5.021-1.063 10.107 1.556 12.374 6.378 4.242 9.025 10.01 17.218 17.145 24.352l128.347 128.389c9.92 9.92 17.704 21.436 23.133 34.228 2.158 5.084 8.03 7.456 13.112 5.298 5.084-2.158 7.456-8.029 5.298-13.112-6.438-15.167-15.657-28.811-27.401-40.556l-42.241-42.24 42.241-42.241c10.698-10.699 19.326-22.988 25.643-36.528 4.038-8.657 3.913-18.516-.344-27.05-4.24-8.5-12.002-14.506-21.296-16.477-14.166-3.006-28.409 4.176-34.643 17.46-1.986 4.232-4.419 8.227-7.26 11.951h-96.341c-2.854-3.732-5.297-7.738-7.292-11.982-6.239-13.272-20.482-20.442-34.666-17.425-9.289 1.974-17.044 7.98-21.277 16.479-4.25 8.531-4.37 18.384-.33 27.032 6.315 13.52 14.934 25.792 25.617 36.475l42.306 42.305-42.306 42.306c-24.241 24.241-37.591 56.471-37.591 90.753s13.35 66.511 37.591 90.752l42.24 42.241-42.24 42.24c-10.698 10.698-19.326 22.988-25.643 36.528-4.039 8.656-3.914 18.515.343 27.049 4.24 8.501 12.002 14.507 21.297 16.478 2.154.457 4.31.678 6.439.678 11.871 0 22.917-6.875 28.203-18.138 1.986-4.231 4.418-8.225 7.259-11.949h96.344c2.854 3.732 5.296 7.737 7.291 11.98 5.292 11.259 16.342 18.126 28.156 18.125 2.113 0 4.252-.22 6.386-.674.031-.006.095-.019.125-.025 9.289-1.975 17.043-7.981 21.277-16.48 4.249-8.53 4.369-18.383.33-27.031-6.315-13.519-14.934-25.792-25.618-36.476zm-115.082-381.24h58.04l-29.02 29.02zm114.936-29.847c3.294.698 6.046 2.827 7.548 5.838 1.519 3.045 1.561 6.569.116 9.667-5.329 11.42-12.616 21.797-21.661 30.841l-42.219 42.219-15.558-15.558 42.219-42.219c7.147-7.147 12.922-15.355 17.166-24.397 2.267-4.829 7.363-7.456 12.389-6.391zm-114.987 295.912h58.011l-29.005 29.005zm29.071-149.318 29.007 29.007h-58.014zm-48.096 48.935c.38.044.766.072 1.158.072h94.226c.276 0 .547-.019.817-.041 6.768 8.859 11.154 19.188 12.803 30.197h-121.87c1.662-11.025 6.069-21.365 12.866-30.228zm108.993 50.228c-1.661 11.011-6.059 21.339-12.842 30.194-.254-.019-.508-.039-.767-.039h-95.49c-6.75-8.85-11.125-19.163-12.771-30.155zm-146.878 225.755c-3.294-.699-6.046-2.827-7.548-5.84-1.519-3.045-1.561-6.568-.116-9.666 5.329-11.421 12.616-21.798 21.661-30.842l42.22-42.219 15.558 15.558-42.22 42.22c-7.148 7.148-12.923 15.356-17.166 24.396-2.268 4.83-7.364 7.456-12.389 6.393zm114.938-29.845h-58.043l29.021-29.021zm64.49 24.009c-1.499 3.009-4.245 5.136-7.443 5.815-.031.007-.095.02-.125.026-5.019 1.07-10.106-1.556-12.373-6.378-4.242-9.024-10.01-17.218-17.145-24.353l-128.346-128.388c-20.463-20.463-31.733-47.671-31.733-76.61 0-28.94 11.27-56.147 31.733-76.611l42.285-42.284 15.525 15.525-42.252 42.318c-16.308 16.308-25.289 37.99-25.289 61.053s8.981 44.745 25.289 61.052l128.346 128.389c9.033 9.032 16.313 19.395 21.639 30.797 1.444 3.091 1.404 6.608-.111 9.649z"/><path id="XMLID_395_" d="m266.069 246.001c-2.63 0-5.21 1.07-7.07 2.93-1.87 1.86-2.93 4.44-2.93 7.07s1.06 5.21 2.93 7.069c1.86 1.86 4.44 2.931 7.07 2.931s5.21-1.07 7.07-2.931c1.86-1.859 2.93-4.439 2.93-7.069s-1.07-5.21-2.93-7.07-4.44-2.93-7.07-2.93z"/><path id="XMLID_398_" d="m473.259 54.001h-80c-5.523 0-10 4.477-10 10v96c0 3.269 1.575 6.162 4 7.986v244.014c0 25.364 20.636 46 46 46s46-20.636 46-46v-244.014c2.425-1.825 4-4.718 4-7.986v-96c0-5.523-4.477-10-10-10zm-14 190.156h-52v-74.156h52zm-56-170.156h60v76h-60zm30 364c-14.336 0-26-11.663-26-26v-147.844h52v147.844c0 14.337-11.664 26-26 26z"/></g></g></g></svg>