<svg id="Capa_1" enable-background="new 0 0 512 512" height="512" viewBox="0 0 512 512" width="512" xmlns="http://www.w3.org/2000/svg"><g><path d="m15 151h106v331l-30 30h-76c-8.284 0-15-6.716-15-15v-331c0-8.284 6.716-15 15-15z" fill="#d5e8fe"/><path d="m497 151h-106v331l30 30h76c8.284 0 15-6.716 15-15v-331c0-8.284-6.716-15-15-15z" fill="#b5dbff"/><path d="m391 271v90l30 30v121h-60l-30-30h-150l-30 30h-60v-121l30-30v-90l-30-30v-135c0-8.401 6.599-15 15-15h300c8.401 0 15 6.599 15 15v135z" fill="#edf5ff"/><path d="m391 271v90l30 30v121h-60l-30-30h-75v-391h150c8.401 0 15 6.599 15 15v135z" fill="#d5e8fe"/><path d="m91 241h330v150h-330z" fill="#76e2f8"/><path d="m256 241h165v150h-165z" fill="#66c0ee"/><path d="m346 0h-180c-8.401 0-15 6.599-15 15v181c0 8.401 6.599 15 15 15h180c8.401 0 15-6.599 15-15v-181c0-8.401-6.599-15-15-15z" fill="#ff6a4d"/><path d="m346 211h-90v-211h90c8.401 0 15 6.599 15 15v181c0 8.401-6.599 15-15 15z" fill="#e62e2e"/><path d="m121 271h120v30h-120z" fill="#9bfcff"/><path d="m271 271h120v30h-120z" fill="#76e2f8"/><path d="m121 331h120v30h-120z" fill="#9bfcff"/><path d="m271 331h120v30h-120z" fill="#76e2f8"/><path d="m361 436v76h-30l-30-30-30 30h-30l-30-30-30 30h-30v-76c0-8.401 6.599-15 15-15h180c8.401 0 15 6.599 15 15z" fill="#76e2f8"/><path d="m361 436v76h-30l-30-30-30 30h-15v-91h90c8.401 0 15 6.599 15 15z" fill="#66c0ee"/><path d="m181 451h60v61h-60z" fill="#9bfcff"/><path d="m271 451h60v61h-60z" fill="#76e2f8"/><path d="m301 106c0 8.401-6.599 15-15 15h-15v15c0 8.401-6.599 15-15 15s-15-6.599-15-15v-15h-15c-8.401 0-15-6.599-15-15s6.599-15 15-15h15v-15c0-8.401 6.599-15 15-15s15 6.599 15 15v15h15c8.401 0 15 6.599 15 15z" fill="#edf5ff"/><path d="m301 106c0 8.401-6.599 15-15 15h-15v15c0 8.401-6.599 15-15 15v-90c8.401 0 15 6.599 15 15v15h15c8.401 0 15 6.599 15 15z" fill="#d5e8fe"/></g></svg>