<svg id="Capa_1" enable-background="new 0 0 512 512" height="512" viewBox="0 0 512 512" width="512" xmlns="http://www.w3.org/2000/svg"><g><path d="m496 451v46c0 8.28-6.72 15-15 15h-450c-8.28 0-15-6.72-15-15v-46c0-57.83 47-104.9 104.81-105h38.993l96.197 20 96.226-20h38.774c57.9 0 105 47.1 105 105z" fill="#22e0e0"/><path d="m496 451v46c0 8.28-6.72 15-15 15h-225v-166h135c57.9 0 105 47.1 105 105z" fill="#22c7e0"/><path d="m256.762 444.606-60.766-98.618s.032-22.066.033-26.806c18.655 11.021 38.998 16.742 60.024 16.742 20.98 0 41.29-5.72 59.932-16.741 0 4.765.015 26.828.015 26.828z" fill="#ffa58d"/><path d="m316 346.01-59.24 98.6-.76-1.23v-107.46c3.617-.5 29.246 1.443 59.99-16.74 0 .183.01 27.45.01 26.83z" fill="#f59280"/><path d="m397.626 429.038h-6.554v-6.698c0-8.284-6.716-15-15-15s-15 6.716-15 15v6.698h-6.699c-8.284 0-15 6.716-15 15s6.716 15 15 15h6.699v6.555c0 8.284 6.716 15 15 15s15-6.716 15-15v-6.555h6.554c8.284 0 15-6.716 15-15s-6.715-15-15-15z" fill="#dd124c"/><path d="m407.6 208.78c0 16.97-13.75 30.72-30.72 30.72h-2.54c-11.19 62.08-65.61 106.5-118.34 106.5s-107.15-44.42-118.34-106.5h-3.02c-16.7 0-30.24-13.54-30.24-30.25v-.94c0-16.679 13.509-30.25 30.24-30.25l105.86-2.06c37.563 0 55.294-27.382 60.397-31.41 8.913 7.003 25.493 29.964 64.193 31.47 2.798.109 11.02 2 11.02 2h.77c16.96 0 30.72 13.76 30.72 30.72z" fill="#fdbbab"/><path d="m407.6 208.78c0 16.97-13.75 30.72-30.72 30.72h-2.54c-11.307 62.742-66.231 106.5-118.34 106.5v-171.66c27.07-5.99 40.55-26.32 44.9-29.75 8.91 7 25.49 29.96 64.19 31.47 2.8.11 11.02 2 11.02 2 .511.055 6.762-.471 14.03 3 10.32 4.95 17.46 15.51 17.46 27.72z" fill="#ffa58d"/><path d="m390.325 181.057c7.959-89.52-55.586-154.33-131.88-149.382-.284-.041-.57-.074-.86-.099-79.09-6.861-144.073 60.375-135.887 149.511l12.946-.087h105.856c24.729 0 46.72-11.953 60.5-30.381 21.267 28.441 50.184 30.58 65.368 30.437z" fill="#004071"/><path d="m390.33 181.06c-24.9-.732-62.009 6.09-89.33-30.44-10.82 14.47-26.7 24.95-45 28.77v-147.93c7.628.441 55.797-5.371 96.56 35.88 26.54 26.85 41.93 66.91 37.77 113.72z" fill="#00244c"/><path d="m346.05 0h-180.1c-9.248 0-16.319 8.309-14.797 17.46l15.05 90.5c1.203 7.235 7.462 12.54 14.797 12.54h150c7.334 0 13.594-5.304 14.797-12.54l15.05-90.5c1.514-9.106-5.502-17.46-14.797-17.46z" fill="#e6faff"/><path d="m360.85 17.46c-.027.161-15.033 90.399-15.05 90.5-1.21 7.24-7.47 12.54-14.8 12.54h-75v-120.5h90.05c9.3 0 16.31 8.35 14.8 17.46z" fill="#ccf8ff"/><path d="m286.435 265.731c-5.951-5.763-15.448-5.61-21.21.341-4.772 4.928-7.935 4.928-8.975 4.928-1.078 0-4.36 0-9.325-5.278-5.676-6.033-15.169-6.323-21.203-.647s-6.324 15.169-.647 21.204c11.446 12.167 23.271 14.721 31.175 14.721 7.715 0 19.274-2.438 30.525-14.059 5.764-5.951 5.611-15.447-.34-21.21z" fill="#ffa58d"/><path d="m286.78 286.94c-11.26 11.62-22.81 14.06-30.53 14.06h-.25v-30c3.682 0 6.636-2.26 9.22-4.93 5.77-5.95 15.26-6.1 21.21-.34 5.96 5.76 6.11 15.26.35 21.21z" fill="#f59280"/><path d="m263.503 446.105-17.063 28.342-86.637-128.447h36.19z" fill="#e6faff"/><path d="m352.226 346-96.228 142.231.002 23.769h-27.944v-31.41c0-2.99.9-5.92 2.57-8.4l85.37-126.19z" fill="#ccf8ff"/><path d="m352.23 346-96.23 142.23v-53.54l60-88.68v-.01z" fill="#b0f2ff"/></g></svg>