<svg height="512" viewBox="0 0 58 58" width="512" xmlns="http://www.w3.org/2000/svg"><g id="019---Nurse-Takes-Blood" fill="none" transform="translate(-1)"><path id="Shape" d="m33.9 35.48c-.3818265-2.0493615-1.8935409-3.7044949-3.9-4.27v-13.06c-.0215758-2.5426377-1.1630985-4.9464211-3.12-6.57h-15.76c-1.95690146 1.6235789-3.09842418 4.0273623-3.12 6.57v13.06c-1.71230687.4844236-3.08377054 1.7684636-3.67976731 3.4452012s-.34264484 3.5383186.67976731 4.9947988l29 1.35z" fill="#a56a43"/><path id="Shape" d="m31.87 39.14c-2.5438578-.978729-5.1808037-1.6957638-7.87-2.14h-10s-13 2-13 7v13.21c-.01283305.2011292.0565894.398843.19234623.5477984s.32619994.2363719.52765377.2422016h34.56c.2010705-.0069314.3908444-.0946766.5263667-.2433747.1355223-.148698.205334-.3457758.1936333-.5466253v-1.73z" fill="#26b99a"/><path id="Shape" d="m25.666 12h-13.332c-.9776938.0001202-1.8121694-.7066252-1.973-1.671l-1.333-8c-.09669459-.57980114.06656694-1.17278303.44640425-1.62138399s.93778695-.70739436 1.52559575-.70761601h16c.5878088.00022165 1.1457584.25901505 1.5255957.70761601.3798374.44860096.5430989 1.04158285.4464043 1.62138399l-1.333 8c-.1608306.9643748-.9953062 1.6711202-1.973 1.671z" fill="#ecf0f1"/><rect id="Rectangle-path" fill="#ecf0f1" height="6" rx="1" width="8" x="5" y="47"/><circle id="Oval" cx="9" cy="45" fill="#35495e" r="2"/><path id="Shape" d="m24 32.49v4.51l-4.186 5.581c-.187685.263014-.490887.4191351-.814.4191351s-.626315-.1561211-.814-.4191351l-4.186-5.581v-4.51z" fill="#f9c795"/><path id="Shape" d="m31 23.5c0 2.663-2.383 4.212-4.25 3.18-4.174 12.393-11.3 12.458-15.5 0-1.873 1.035-4.25-.532-4.25-3.18 0-2.506 2.166-4.131 4.06-3.27.0461945-.1609517.1403859-.3039832.27-.41.8-.636 4.98-1.93 7.18-3.64.2896171-.2200258.6903829-.2200258.98 0 2.2 1.71 6.383 3 7.18 3.64.1296141.1060168.2238055.2490483.27.41 1.901-.864 4.06.77 4.06 3.27z" fill="#fdd7ad"/><circle id="Oval" cx="45" cy="44" fill="#35495e" r="14"/><path id="Shape" d="m19 9c-.5522847 0-1-.44771525-1-1v-4c0-.55228475.4477153-1 1-1s1 .44771525 1 1v4c0 .55228475-.4477153 1-1 1z" fill="#e64c3c"/><path id="Shape" d="m21 7h-4c-.5522847 0-1-.44771525-1-1s.4477153-1 1-1h4c.5522847 0 1 .44771525 1 1s-.4477153 1-1 1z" fill="#e64c3c"/><path id="Shape" d="m52 45.971c0 3.8659932-3.1340068 7-7 7s-7-3.1340068-7-7c0-4.63 4.743-9.259 6.421-10.751.3304573-.2928444.8275427-.2928444 1.158 0 1.678 1.492 6.421 6.121 6.421 10.751z" fill="#c03a2b"/><path id="Shape" d="m50.833 44.142c0 3.2214769-2.6115231 5.833-5.833 5.833s-5.833-2.6115231-5.833-5.833c0-3.857 3.952-7.715 5.35-8.959.275793-.243956.690207-.243956.966 0 1.398 1.244 5.35 5.102 5.35 8.959z" fill="#e64c3c"/><path id="Shape" d="m42.507 49c-.349068.0005036-.6731357-.1810501-.855-.479-1.761-2.884.461-6.517 2.568-9.146.3507413-.4107536.9642746-.4687577 1.3857798-.1310132.4215051.3377446.4986385.9491675.1742202 1.3810132-1.741 2.175-2.78 4.248-2.78 5.551-.0016837.4580384.1225021.9077363.359 1.3.1898515.3085878.1979385.6957287.0211391 1.0119754-.1767993.3162468-.5108271.5121267-.8731391.5120246z" fill="#fb7b76"/></g></svg>